<?xml version="1.0" encoding="UTF-8"?>
<!DOCTYPE svg PUBLIC "-//W3C//DTD SVG 1.1//EN" "http://www.w3.org/Graphics/SVG/1.1/DTD/svg11.dtd">
<svg xmlns="http://www.w3.org/2000/svg" version="1.1" width="774px" height="117px" style="shape-rendering:geometricPrecision; text-rendering:geometricPrecision; image-rendering:optimizeQuality; fill-rule:evenodd; clip-rule:evenodd" xmlns:xlink="http://www.w3.org/1999/xlink">
<g><path style="opacity:1" fill="#fcfcfd" d="M -0.5,-0.5 C 257.5,-0.5 515.5,-0.5 773.5,-0.5C 773.5,38.5 773.5,77.5 773.5,116.5C 515.5,116.5 257.5,116.5 -0.5,116.5C -0.5,77.5 -0.5,38.5 -0.5,-0.5 Z"/></g>
<g><path style="opacity:1" fill="#254f76" d="M 93.5,1.5 C 97.6372,1.14631 101.637,1.64631 105.5,3C 108.448,6.92749 107.782,10.2608 103.5,13C 97.4451,16.6387 91.1117,17.3053 84.5,15C 82.0117,12.373 81.8451,9.53966 84,6.5C 87.1806,4.66182 90.3473,2.99516 93.5,1.5 Z"/></g>
<g><path style="opacity:1" fill="#1f4e78" d="M 187.5,3.5 C 186.836,6.1459 186.502,8.97923 186.5,12C 186.519,15.2515 187.186,18.0849 188.5,20.5C 190.607,21.4682 192.941,21.8016 195.5,21.5C 195.664,24.1873 195.497,26.854 195,29.5C 192.959,30.4231 190.792,30.7564 188.5,30.5C 187.168,42.1476 186.501,54.1476 186.5,66.5C 186.667,78.5 186.833,90.5 187,102.5C 187.69,103.738 188.19,103.738 188.5,102.5C 189.934,104.49 191.768,106.157 194,107.5C 194.495,109.473 194.662,111.473 194.5,113.5C 186.493,113.666 178.493,113.5 170.5,113C 168.959,111.421 167.792,109.587 167,107.5C 166.5,81.8355 166.333,56.1688 166.5,30.5C 164.833,30.5 163.167,30.5 161.5,30.5C 161.183,27.4281 161.516,24.4281 162.5,21.5C 172.412,19.0887 178.412,12.9221 180.5,3C 183.039,2.20419 185.372,2.37086 187.5,3.5 Z"/></g>
<g><path style="opacity:1" fill="#122f48" d="M 187.5,3.5 C 188.489,8.97533 188.822,14.642 188.5,20.5C 187.186,18.0849 186.519,15.2515 186.5,12C 186.502,8.97923 186.836,6.1459 187.5,3.5 Z"/></g>
<g><path style="opacity:1" fill="#1f4e78" d="M 360.5,3.5 C 359.836,6.1459 359.502,8.97923 359.5,12C 359.519,15.2515 360.186,18.0849 361.5,20.5C 363.607,21.4682 365.941,21.8016 368.5,21.5C 368.664,24.1873 368.497,26.854 368,29.5C 365.959,30.4231 363.792,30.7564 361.5,30.5C 360.168,42.1476 359.501,54.1476 359.5,66.5C 359.667,78.5 359.833,90.5 360,102.5C 360.69,103.738 361.19,103.738 361.5,102.5C 362.934,104.49 364.768,106.157 367,107.5C 367.495,109.473 367.662,111.473 367.5,113.5C 359.493,113.666 351.493,113.5 343.5,113C 341.959,111.421 340.792,109.587 340,107.5C 339.5,81.8355 339.333,56.1688 339.5,30.5C 337.833,30.5 336.167,30.5 334.5,30.5C 334.183,27.4281 334.516,24.4281 335.5,21.5C 345.399,19.1014 351.399,12.9347 353.5,3C 356.039,2.20419 358.372,2.37086 360.5,3.5 Z"/></g>
<g><path style="opacity:1" fill="#122f48" d="M 360.5,3.5 C 361.489,8.97533 361.822,14.642 361.5,20.5C 360.186,18.0849 359.519,15.2515 359.5,12C 359.502,8.97923 359.836,6.1459 360.5,3.5 Z"/></g>
<g><path style="opacity:1" fill="#214f78" d="M 49.5,5.5 C 56.7362,9.56722 62.5695,15.2339 67,22.5C 68.3333,27.1667 69.6667,31.8333 71,36.5C 71.9732,49.979 72.8065,63.3123 73.5,76.5C 73.7373,77.791 73.404,78.791 72.5,79.5C 72.631,78.7611 72.4643,78.0944 72,77.5C 69.9676,86.472 66.6343,94.8054 62,102.5C 58.921,105.385 56.421,108.052 54.5,110.5C 52.5242,112.011 50.1909,112.844 47.5,113C 33.1667,113.667 18.8333,113.667 4.5,113C 3.22343,110.534 3.22343,108.034 4.5,105.5C 6.14869,104.352 7.64869,103.019 9,101.5C 9.66667,72.8333 9.66667,44.1667 9,15.5C 4.10587,12.5865 3.27253,8.75313 6.5,4C 19.8333,3.33333 33.1667,3.33333 46.5,4C 47.7375,4.23209 48.7375,4.73209 49.5,5.5 Z"/></g>
<g><path style="opacity:1" fill="#214f79" d="M 428.5,4.5 C 427.387,5.94639 427.22,7.61305 428,9.5C 434.492,22.9787 440.492,36.6454 446,50.5C 446.902,52.4308 448.069,54.0975 449.5,55.5C 450.117,55.6107 450.617,55.944 451,56.5C 451.827,42.9936 451.66,29.6603 450.5,16.5C 449.162,14.3302 447.328,12.6635 445,11.5C 444.231,8.90086 444.398,6.40086 445.5,4C 452.346,3.17935 459.013,3.34602 465.5,4.5C 464.527,6.9479 464.194,9.61456 464.5,12.5C 461.612,12.2196 460.112,13.5529 460,16.5C 459.5,48.8316 459.333,81.1649 459.5,113.5C 456.167,113.5 452.833,113.5 449.5,113.5C 441.497,92.9997 432.997,72.6664 424,52.5C 423.517,53.448 423.351,54.448 423.5,55.5C 422.883,55.3893 422.383,55.056 422,54.5C 421.333,69.8333 421.333,85.1667 422,100.5C 423.32,102.817 424.986,104.817 427,106.5C 427.497,108.81 427.663,111.143 427.5,113.5C 420.91,113.811 414.41,113.478 408,112.5C 406.448,107.896 407.782,104.563 412,102.5C 412.667,73.8333 412.667,45.1667 412,16.5C 407.573,13.2627 406.406,9.09605 408.5,4C 415.346,3.17935 422.013,3.34602 428.5,4.5 Z"/></g>
<g><path style="opacity:1" fill="#214f79" d="M 582.5,22.5 C 581.957,22.56 581.624,22.8933 581.5,23.5C 583.149,24.6477 584.649,25.981 586,27.5C 588.533,31.9041 590.533,36.5708 592,41.5C 594.501,60.9641 593.835,80.2974 590,99.5C 587.315,106.253 582.815,111.253 576.5,114.5C 570.057,114.965 564.891,112.631 561,107.5C 560.749,109.433 560.249,111.266 559.5,113C 550.921,113.816 542.421,113.649 534,112.5C 532.703,108.846 533.703,106.179 537,104.5C 537.833,73.8279 537.667,43.1612 536.5,12.5C 533.451,10.3176 532.784,7.48424 534.5,4C 542.5,3.33333 550.5,3.33333 558.5,4C 560.282,11.2299 561.115,18.7299 561,26.5C 567.327,20.2153 574.494,18.882 582.5,22.5 Z"/></g>
<g><path style="opacity:1" fill="#22507a" d="M 695.5,4.5 C 694.17,38.0024 694.17,71.6691 695.5,105.5C 697.018,107.621 698.018,109.954 698.5,112.5C 689.343,113.658 680.009,113.824 670.5,113C 669.398,110.599 669.231,108.099 670,105.5C 670.689,104.643 671.522,103.977 672.5,103.5C 673.667,73.8389 673.833,44.1723 673,14.5C 668.647,10.9815 668.48,7.48147 672.5,4C 680.345,3.17767 688.011,3.34434 695.5,4.5 Z"/></g>
<g><path style="opacity:1" fill="#1e3952" d="M 695.5,4.5 C 696.332,37.6642 696.832,70.9975 697,104.5C 699.561,106.858 700.061,109.525 698.5,112.5C 698.018,109.954 697.018,107.621 695.5,105.5C 694.17,71.6691 694.17,38.0024 695.5,4.5 Z"/></g>
<g><path style="opacity:1" fill="#fefefe" d="M 35.5,12.5 C 40.1328,11.4582 43.2994,13.1249 45,17.5C 45.6667,45.5 45.6667,73.5 45,101.5C 44.34,103.324 43.1733,104.657 41.5,105.5C 39.5,105.5 37.5,105.5 35.5,105.5C 35.5,74.5 35.5,43.5 35.5,12.5 Z"/></g>
<g><path style="opacity:1" fill="#6d7f8f" d="M 35.5,12.5 C 35.5,43.5 35.5,74.5 35.5,105.5C 37.5,105.5 39.5,105.5 41.5,105.5C 39.3926,106.468 37.0593,106.802 34.5,106.5C 34.1685,74.9956 34.5018,43.6622 35.5,12.5 Z"/></g>
<g><path style="opacity:1" fill="#122f48" d="M 465.5,4.5 C 467.619,9.19641 466.453,12.8631 462,15.5C 462.161,48.5153 461.328,81.182 459.5,113.5C 459.333,81.1649 459.5,48.8316 460,16.5C 460.112,13.5529 461.612,12.2196 464.5,12.5C 464.194,9.61456 464.527,6.9479 465.5,4.5 Z"/></g>
<g><path style="opacity:1" fill="#8fa7bd" d="M 450.5,16.5 C 451.66,29.6603 451.827,42.9936 451,56.5C 450.617,55.944 450.117,55.6107 449.5,55.5C 449.5,54.8333 449.5,54.1667 449.5,53.5C 450.495,41.3446 450.829,29.0113 450.5,16.5 Z"/></g>
<g><path style="opacity:1" fill="#264059" d="M 49.5,5.5 C 59.7195,8.55116 66.5529,15.2178 70,25.5C 74.4924,42.2557 75.6591,59.2557 73.5,76.5C 72.8065,63.3123 71.9732,49.979 71,36.5C 69.6667,31.8333 68.3333,27.1667 67,22.5C 62.5695,15.2339 56.7362,9.56722 49.5,5.5 Z"/></g>
<g><path style="opacity:1" fill="#204e77" d="M 133.5,30.5 C 133.44,29.9569 133.107,29.6236 132.5,29.5C 131.359,31.4213 131.192,33.4213 132,35.5C 138.333,46.8333 144.667,58.1667 151,69.5C 155.646,80.5076 156.646,91.8409 154,103.5C 151.463,109.215 147.296,112.882 141.5,114.5C 137.545,113.197 133.545,111.864 129.5,110.5C 129.67,111.822 129.337,112.989 128.5,114C 126.231,114.758 124.064,114.591 122,113.5C 120.116,105.863 118.783,98.196 118,90.5C 120.284,88.0155 122.784,87.8489 125.5,90C 128,93.8333 130.5,97.6667 133,101.5C 134.946,103.994 137.279,104.661 140,103.5C 140.667,100.833 140.667,98.1667 140,95.5C 132.234,82.3025 125.234,68.6358 119,54.5C 115.773,45.8041 115.773,37.1374 119,28.5C 125.308,19.7568 133.308,18.0902 143,23.5C 144.274,22.4647 145.44,21.298 146.5,20C 148.167,19.3333 149.833,19.3333 151.5,20C 153.414,26.8974 155.081,33.8974 156.5,41C 156.415,42.1074 156.081,43.1074 155.5,44C 153.167,44.6667 150.833,44.6667 148.5,44C 145.993,39.3181 142.993,34.9848 139.5,31C 137.544,29.3883 135.544,29.2216 133.5,30.5 Z"/></g>
<g><path style="opacity:1" fill="#204e78" d="M 254.5,29.5 C 253.946,31.7705 254.446,34.1038 256,36.5C 256.333,58.8333 256.667,81.1667 257,103.5C 259.251,106.017 260.084,109.017 259.5,112.5C 253.687,114.915 247.687,115.082 241.5,113C 238.93,110.933 236.93,108.433 235.5,105.5C 232.646,108.188 229.646,110.688 226.5,113C 211.602,116.797 203.102,110.964 201,95.5C 199.94,86.0262 200.607,76.6928 203,67.5C 205.5,63.6667 208.667,60.5 212.5,58C 219.717,54.5581 227.05,51.3914 234.5,48.5C 235.663,42.8625 235.83,37.1959 235,31.5C 231.195,28.4612 228.195,29.1279 226,33.5C 227.352,40.9809 224.519,45.8142 217.5,48C 205.206,50.6171 200.706,45.7837 204,33.5C 209.771,23.6143 218.438,19.2809 230,20.5C 239.907,19.1712 248.073,22.1712 254.5,29.5 Z"/></g>
<g><path style="opacity:1" fill="#24507a" d="M 293.5,21.5 C 293.187,24.2469 293.52,26.9135 294.5,29.5C 295.107,29.3764 295.44,29.0431 295.5,28.5C 300.882,21.9235 307.882,19.2568 316.5,20.5C 318.718,22.2083 320.884,24.2083 323,26.5C 323.333,27.8333 323.667,29.1667 324,30.5C 324.019,54.9209 324.686,79.2542 326,103.5C 326.5,79.8357 326.667,56.169 326.5,32.5C 327.332,55.9965 327.832,79.6631 328,103.5C 330.271,106.12 330.938,109.12 330,112.5C 322.58,113.647 315.08,113.813 307.5,113C 306.874,112.25 306.374,111.416 306,110.5C 304.852,85.8533 304.019,61.1867 303.5,36.5C 300.388,35.0171 297.555,35.3504 295,37.5C 294.5,58.8307 294.333,80.1641 294.5,101.5C 293.833,80.3295 293.167,58.9962 292.5,37.5C 291.334,58.8255 291.167,80.1589 292,101.5C 292.748,103.332 293.748,104.999 295,106.5C 295.703,108.929 295.537,111.262 294.5,113.5C 285.5,113.5 276.5,113.5 267.5,113.5C 266.799,109.181 267.966,105.514 271,102.5C 271.667,78.5 271.667,54.5 271,30.5C 267.791,28.2678 266.791,25.2678 268,21.5C 276.598,20.1721 285.098,20.1721 293.5,21.5 Z"/></g>
<g><path style="opacity:1" fill="#204e78" d="M 507.5,20.5 C 511.657,23.2075 515.49,26.5408 519,30.5C 520,32.5 521,34.5 522,36.5C 523.824,45.7376 524.657,55.0709 524.5,64.5C 514.833,64.5 505.167,64.5 495.5,64.5C 495.333,76.1714 495.5,87.8381 496,99.5C 496.949,101.093 498.115,102.426 499.5,103.5C 508.697,106.805 514.197,103.471 516,93.5C 516.333,90.5 516.667,87.5 517,84.5C 520.269,83.1816 523.435,83.1816 526.5,84.5C 525.707,88.7017 524.874,93.0351 524,97.5C 521.535,101.437 519.368,105.437 517.5,109.5C 506.625,116.5 495.958,116 485.5,108C 478.053,100.009 473.886,90.5095 473,79.5C 471.636,66.2834 472.636,53.2834 476,40.5C 481.487,25.8326 491.987,19.1659 507.5,20.5 Z"/></g>
<g><path style="opacity:1" fill="#204e78" d="M 759.5,29.5 C 758.946,31.7705 759.446,34.1038 761,36.5C 761.333,58.8333 761.667,81.1667 762,103.5C 765.135,106.659 765.302,109.992 762.5,113.5C 752.797,116.891 745.464,114.224 740.5,105.5C 737.646,108.188 734.646,110.688 731.5,113C 721.808,116.859 714.308,114.359 709,105.5C 704.054,91.6651 704.387,77.9985 710,64.5C 712.205,61.9598 714.705,59.7932 717.5,58C 724.717,54.5581 732.05,51.3914 739.5,48.5C 740.663,42.8625 740.83,37.1959 740,31.5C 736.195,28.4612 733.195,29.1279 731,33.5C 732.352,40.9809 729.519,45.8142 722.5,48C 710.206,50.6171 705.706,45.7837 709,33.5C 714.771,23.6143 723.438,19.2809 735,20.5C 740.692,20.1976 746.192,21.031 751.5,23C 754.936,24.2739 757.603,26.4406 759.5,29.5 Z"/></g>
<g><path style="opacity:1" fill="#23507a" d="M 106.5,21.5 C 105.336,48.6636 105.17,75.9969 106,103.5C 109.5,106.169 110.334,109.502 108.5,113.5C 99.5,113.5 90.5,113.5 81.5,113.5C 80.8803,109.698 81.7137,106.365 84,103.5C 84.8331,79.1598 84.6665,54.8265 83.5,30.5C 79.9532,27.7101 79.6198,24.5434 82.5,21C 90.6775,20.1772 98.6775,20.3439 106.5,21.5 Z"/></g>
<g><path style="opacity:1" fill="#90a0ad" d="M 293.5,21.5 C 294.167,23.8333 294.833,26.1667 295.5,28.5C 295.44,29.0431 295.107,29.3764 294.5,29.5C 293.52,26.9135 293.187,24.2469 293.5,21.5 Z"/></g>
<g><path style="opacity:1" fill="#214f79" d="M 626.5,21.5 C 625.337,45.9966 625.17,70.6632 626,95.5C 626.432,98.0724 627.932,99.4057 630.5,99.5C 632.936,99.683 635.103,99.0163 637,97.5C 637.167,86.3333 637.333,75.1667 637.5,64C 637.486,49.5142 636.653,35.3475 635,21.5C 643.598,20.1721 652.098,20.1721 660.5,21.5C 659.167,34.6497 658.501,48.1497 658.5,62C 658.667,75.5 658.833,89 659,102.5C 659.69,103.738 660.19,103.738 660.5,102.5C 663.8,105.316 665.133,108.982 664.5,113.5C 655.833,113.5 647.167,113.5 638.5,113.5C 638.813,110.753 638.48,108.086 637.5,105.5C 631.251,112.296 623.584,115.13 614.5,114C 609.378,111.946 606.545,108.113 606,102.5C 605.667,78.8333 605.333,55.1667 605,31.5C 604,30.8333 603,30.1667 602,29.5C 601.333,26.8333 601.333,24.1667 602,21.5C 610.265,20.1724 618.432,20.1724 626.5,21.5 Z"/></g>
<g><path style="opacity:1" fill="#122f49" d="M 626.5,21.5 C 627.332,45.6632 627.832,69.9966 628,94.5C 628.366,96.4517 629.199,98.1184 630.5,99.5C 627.932,99.4057 626.432,98.0724 626,95.5C 625.17,70.6632 625.337,45.9966 626.5,21.5 Z"/></g>
<g><path style="opacity:1" fill="#112b44" d="M 660.5,21.5 C 660.5,48.5 660.5,75.5 660.5,102.5C 660.19,103.738 659.69,103.738 659,102.5C 658.833,89 658.667,75.5 658.5,62C 658.501,48.1497 659.167,34.6497 660.5,21.5 Z"/></g>
<g><path style="opacity:1" fill="#19354f" d="M 106.5,21.5 C 107.332,48.6636 107.832,75.9969 108,103.5C 111.209,105.732 112.209,108.732 111,112.5C 110.329,113.252 109.496,113.586 108.5,113.5C 110.334,109.502 109.5,106.169 106,103.5C 105.17,75.9969 105.336,48.6636 106.5,21.5 Z"/></g>
<g><path style="opacity:1" fill="#203b55" d="M 428.5,4.5 C 435.694,20.7463 442.694,37.0796 449.5,53.5C 449.5,54.1667 449.5,54.8333 449.5,55.5C 448.069,54.0975 446.902,52.4308 446,50.5C 440.492,36.6454 434.492,22.9787 428,9.5C 427.22,7.61305 427.387,5.94639 428.5,4.5 Z"/></g>
<g><path style="opacity:1" fill="#f7f8fa" d="M 499.5,28.5 C 502.325,28.0807 504.491,29.0807 506,31.5C 506.5,40.1603 506.666,48.8269 506.5,57.5C 503.5,57.5 500.5,57.5 497.5,57.5C 497.5,49.5 497.5,41.5 497.5,33.5C 497.893,31.7162 498.559,30.0495 499.5,28.5 Z"/></g>
<g><path style="opacity:1" fill="#112f48" d="M 188.5,30.5 C 188.5,54.5 188.5,78.5 188.5,102.5C 188.19,103.738 187.69,103.738 187,102.5C 186.833,90.5 186.667,78.5 186.5,66.5C 186.501,54.1476 187.168,42.1476 188.5,30.5 Z"/></g>
<g><path style="opacity:1" fill="#112f48" d="M 361.5,30.5 C 361.5,54.5 361.5,78.5 361.5,102.5C 361.19,103.738 360.69,103.738 360,102.5C 359.833,90.5 359.667,78.5 359.5,66.5C 359.501,54.1476 360.168,42.1476 361.5,30.5 Z"/></g>
<g><path style="opacity:1" fill="#fafbfc" d="M 560.5,99.5 C 560.5,78.1667 560.5,56.8333 560.5,35.5C 564.135,32.5267 567.302,32.86 570,36.5C 570.667,56.8333 570.667,77.1667 570,97.5C 567.632,101.94 564.466,102.607 560.5,99.5 Z"/></g>
<g><path style="opacity:1" fill="#14314b" d="M 499.5,28.5 C 498.559,30.0495 497.893,31.7162 497.5,33.5C 496.671,41.3228 496.171,49.3228 496,57.5C 495.083,48.0909 495.416,38.7576 497,29.5C 497.671,28.7476 498.504,28.4142 499.5,28.5 Z"/></g>
<g><path style="opacity:1" fill="#14324d" d="M 316.5,20.5 C 322.357,22.3598 325.69,26.3598 326.5,32.5C 326.667,56.169 326.5,79.8357 326,103.5C 324.686,79.2542 324.019,54.9209 324,30.5C 323.667,29.1667 323.333,27.8333 323,26.5C 320.884,24.2083 318.718,22.2083 316.5,20.5 Z"/></g>
<g><path style="opacity:1" fill="#203a52" d="M 254.5,29.5 C 256.18,31.5274 257.347,33.8608 258,36.5C 258.333,58.8333 258.667,81.1667 259,103.5C 262.062,106.474 262.229,109.474 259.5,112.5C 260.084,109.017 259.251,106.017 257,103.5C 256.667,81.1667 256.333,58.8333 256,36.5C 254.446,34.1038 253.946,31.7705 254.5,29.5 Z"/></g>
<g><path style="opacity:1" fill="#1c364e" d="M 560.5,35.5 C 560.5,56.8333 560.5,78.1667 560.5,99.5C 560.19,100.738 559.69,100.738 559,99.5C 558.333,78.5 558.333,57.5 559,36.5C 559.383,35.944 559.883,35.6107 560.5,35.5 Z"/></g>
<g><path style="opacity:1" fill="#14324d" d="M 294.5,101.5 C 296.179,103.695 297.179,106.195 297.5,109C 297.95,111.626 296.95,113.126 294.5,113.5C 295.537,111.262 295.703,108.929 295,106.5C 293.748,104.999 292.748,103.332 292,101.5C 291.167,80.1589 291.334,58.8255 292.5,37.5C 293.167,58.9962 293.833,80.3295 294.5,101.5 Z"/></g>
<g><path style="opacity:1" fill="#1f3a53" d="M 759.5,29.5 C 761.18,31.5274 762.347,33.8608 763,36.5C 763.333,58.8333 763.667,81.1667 764,103.5C 767.702,107.619 767.202,110.952 762.5,113.5C 765.302,109.992 765.135,106.659 762,103.5C 761.667,81.1667 761.333,58.8333 761,36.5C 759.446,34.1038 758.946,31.7705 759.5,29.5 Z"/></g>
<g><path style="opacity:1" fill="#19354f" d="M 423.5,55.5 C 423.333,70.837 423.5,86.1703 424,101.5C 425.667,102.833 427.333,104.167 429,105.5C 429.167,106.833 429.333,108.167 429.5,109.5C 429.415,111.333 428.748,112.666 427.5,113.5C 427.663,111.143 427.497,108.81 427,106.5C 424.986,104.817 423.32,102.817 422,100.5C 421.333,85.1667 421.333,69.8333 422,54.5C 422.383,55.056 422.883,55.3893 423.5,55.5 Z"/></g>
<g><path style="opacity:1" fill="#fcfcfc" d="M 234.5,57.5 C 235.495,69.6554 235.829,81.9887 235.5,94.5C 234.697,99.3181 232.03,100.651 227.5,98.5C 227.058,97.2613 226.391,96.2613 225.5,95.5C 225.334,85.8276 225.5,76.1609 226,66.5C 227.633,62.3671 230.466,59.3671 234.5,57.5 Z"/></g>
<g><path style="opacity:1" fill="#567a9a" d="M 234.5,57.5 C 234.5,57.1667 234.5,56.8333 234.5,56.5C 235.83,62.463 236.496,68.7963 236.5,75.5C 236.5,82.009 236.166,88.3424 235.5,94.5C 235.829,81.9887 235.495,69.6554 234.5,57.5 Z"/></g>
<g><path style="opacity:1" fill="#fbfcfc" d="M 739.5,57.5 C 740.495,69.6554 740.829,81.9887 740.5,94.5C 739.697,99.3181 737.03,100.651 732.5,98.5C 732.058,97.2613 731.391,96.2613 730.5,95.5C 730.334,85.8276 730.5,76.1609 731,66.5C 732.633,62.3671 735.466,59.3671 739.5,57.5 Z"/></g>
<g><path style="opacity:1" fill="#5e809f" d="M 739.5,57.5 C 739.5,57.1667 739.5,56.8333 739.5,56.5C 740.83,62.463 741.496,68.7963 741.5,75.5C 741.5,82.009 741.166,88.3424 740.5,94.5C 740.829,81.9887 740.495,69.6554 739.5,57.5 Z"/></g>
<g><path style="opacity:1" fill="#213b55" d="M 582.5,22.5 C 589.149,27.4557 592.983,34.1224 594,42.5C 595.494,57.1362 595.828,71.8029 595,86.5C 594.432,96.5621 590.599,105.062 583.5,112C 581.35,113.411 579.016,114.245 576.5,114.5C 582.815,111.253 587.315,106.253 590,99.5C 593.835,80.2974 594.501,60.9641 592,41.5C 590.533,36.5708 588.533,31.9041 586,27.5C 584.649,25.981 583.149,24.6477 581.5,23.5C 581.624,22.8933 581.957,22.56 582.5,22.5 Z"/></g>
<g><path style="opacity:1" fill="#1c3f5f" d="M 507.5,20.5 C 519.328,25.4343 525.828,34.4343 527,47.5C 527.499,53.4908 527.666,59.4908 527.5,65.5C 517.167,65.5 506.833,65.5 496.5,65.5C 496.173,75.6806 496.506,85.6806 497.5,95.5C 497.584,98.3274 498.25,100.994 499.5,103.5C 498.115,102.426 496.949,101.093 496,99.5C 495.5,87.8381 495.333,76.1714 495.5,64.5C 505.167,64.5 514.833,64.5 524.5,64.5C 524.657,55.0709 523.824,45.7376 522,36.5C 521,34.5 520,32.5 519,30.5C 515.49,26.5408 511.657,23.2075 507.5,20.5 Z"/></g>
<g><path style="opacity:1" fill="#5a6f83" d="M 527.5,65.5 C 517.681,66.494 507.681,66.8274 497.5,66.5C 497.5,76.1667 497.5,85.8333 497.5,95.5C 496.506,85.6806 496.173,75.6806 496.5,65.5C 506.833,65.5 517.167,65.5 527.5,65.5 Z"/></g>
<g><path style="opacity:1" fill="#203b54" d="M 133.5,30.5 C 135.772,40.0449 139.939,48.7115 146,56.5C 150.497,64.4914 154.164,72.8247 157,81.5C 158.05,89.6627 157.383,97.6627 155,105.5C 152.194,111.155 147.694,114.155 141.5,114.5C 147.296,112.882 151.463,109.215 154,103.5C 156.646,91.8409 155.646,80.5076 151,69.5C 144.667,58.1667 138.333,46.8333 132,35.5C 131.192,33.4213 131.359,31.4213 132.5,29.5C 133.107,29.6236 133.44,29.9569 133.5,30.5 Z"/></g>
<g><path style="opacity:1" fill="#213b55" d="M 234.5,56.5 C 234.5,56.8333 234.5,57.1667 234.5,57.5C 230.466,59.3671 227.633,62.3671 226,66.5C 225.5,76.1609 225.334,85.8276 225.5,95.5C 225.631,96.2389 225.464,96.9056 225,97.5C 223.424,86.2253 223.091,74.892 224,63.5C 227.001,60.2609 230.501,57.9276 234.5,56.5 Z"/></g>
<g><path style="opacity:1" fill="#203b55" d="M 739.5,56.5 C 739.5,56.8333 739.5,57.1667 739.5,57.5C 735.466,59.3671 732.633,62.3671 731,66.5C 730.5,76.1609 730.334,85.8276 730.5,95.5C 730.631,96.2389 730.464,96.9056 730,97.5C 728.438,87.5606 728.105,77.5606 729,67.5C 729.989,61.3461 733.489,57.6794 739.5,56.5 Z"/></g>
<g><path style="opacity:1" fill="#1f3b55" d="M 526.5,84.5 C 528.358,94.4732 525.358,102.807 517.5,109.5C 519.368,105.437 521.535,101.437 524,97.5C 524.874,93.0351 525.707,88.7017 526.5,84.5 Z"/></g>
<g><path style="opacity:1" fill="#1d3954" d="M 72.5,79.5 C 71.8844,93.0771 65.8844,103.41 54.5,110.5C 56.421,108.052 58.921,105.385 62,102.5C 66.6343,94.8054 69.9676,86.472 72,77.5C 72.4643,78.0944 72.631,78.7611 72.5,79.5 Z"/></g>
</svg>
