<?xml version="1.0" encoding="UTF-8"?>
<!DOCTYPE svg PUBLIC "-//W3C//DTD SVG 1.1//EN" "http://www.w3.org/Graphics/SVG/1.1/DTD/svg11.dtd">
<svg xmlns="http://www.w3.org/2000/svg" version="1.1" width="350px" height="62px" style="shape-rendering:geometricPrecision; text-rendering:geometricPrecision; image-rendering:optimizeQuality; fill-rule:evenodd; clip-rule:evenodd" xmlns:xlink="http://www.w3.org/1999/xlink">
<g><path style="opacity:1" fill="#fafbfc" d="M -0.5,-0.5 C 116.167,-0.5 232.833,-0.5 349.5,-0.5C 349.5,20.1667 349.5,40.8333 349.5,61.5C 232.833,61.5 116.167,61.5 -0.5,61.5C -0.5,40.8333 -0.5,20.1667 -0.5,-0.5 Z"/></g>
<g><path style="opacity:1" fill="#345c84" d="M 44.5,3.5 C 46.5273,3.33788 48.5273,3.50454 50.5,4C 51.5171,5.04946 51.6838,6.21613 51,7.5C 48.2369,9.9702 45.0703,10.8035 41.5,10C 39.7447,6.49486 40.7447,4.32819 44.5,3.5 Z"/></g>
<g><path style="opacity:1" fill="#24517b" d="M 83.5,4.5 C 84.8333,4.5 86.1667,4.5 87.5,4.5C 87.5,7.16667 87.5,9.83333 87.5,12.5C 88.5,12.5 89.5,12.5 90.5,12.5C 90.5,13.8333 90.5,15.1667 90.5,16.5C 89.5,16.5 88.5,16.5 87.5,16.5C 87.3335,27.1719 87.5002,37.8385 88,48.5C 89.883,49.6526 90.7163,51.3193 90.5,53.5C 86.8183,53.6653 83.1516,53.4986 79.5,53C 78.8742,52.2496 78.3742,51.4162 78,50.5C 78.0819,38.3833 77.2486,26.3833 75.5,14.5C 78.012,12.3011 80.512,9.96774 83,7.5C 83.4828,6.55198 83.6495,5.55198 83.5,4.5 Z"/></g>
<g><path style="opacity:1" fill="#25517c" d="M 160.5,4.5 C 161.833,4.5 163.167,4.5 164.5,4.5C 164.5,7.16667 164.5,9.83333 164.5,12.5C 165.5,12.5 166.5,12.5 167.5,12.5C 167.5,13.8333 167.5,15.1667 167.5,16.5C 166.5,16.5 165.5,16.5 164.5,16.5C 164.333,27.1719 164.5,37.8385 165,48.5C 166.883,49.6526 167.716,51.3193 167.5,53.5C 163.818,53.6653 160.152,53.4986 156.5,53C 155.874,52.2496 155.374,51.4162 155,50.5C 155.082,38.3833 154.249,26.3833 152.5,14.5C 155.012,12.3011 157.512,9.96774 160,7.5C 160.483,6.55198 160.649,5.55198 160.5,4.5 Z"/></g>
<g><path style="opacity:1" fill="#224f7a" d="M 5.5,4.5 C 26.5462,-0.753925 36.8796,7.24607 36.5,28.5C 37.3581,50.2879 27.0247,58.6212 5.5,53.5C 5.12807,50.9783 5.96141,48.9783 8,47.5C 8.83264,34.8202 8.66598,22.1535 7.5,9.5C 5.78256,8.33152 5.11589,6.66485 5.5,4.5 Z"/></g>
<g><path style="opacity:1" fill="#28547d" d="M 185.5,4.5 C 188.777,4.21614 191.943,4.54948 195,5.5C 198,12.5 201,19.5 204,26.5C 204.667,20.8333 204.667,15.1667 204,9.5C 202.117,8.34738 201.284,6.68072 201.5,4.5C 204.833,4.5 208.167,4.5 211.5,4.5C 209.624,20.7238 208.957,37.0572 209.5,53.5C 207.5,53.5 205.5,53.5 203.5,53.5C 200.296,44.7521 196.796,36.0854 193,27.5C 192,36.3675 192.5,45.0342 194.5,53.5C 191.5,53.5 188.5,53.5 185.5,53.5C 185.231,51.5714 185.731,49.9047 187,48.5C 187.833,35.4872 187.666,22.4872 186.5,9.5C 184.296,8.21802 183.962,6.55136 185.5,4.5 Z"/></g>
<g><path style="opacity:1" fill="#26527c" d="M 241.5,4.5 C 245.5,4.5 249.5,4.5 253.5,4.5C 253.183,7.57186 253.516,10.5719 254.5,13.5C 260.028,10.3389 264.194,11.6723 267,17.5C 268.58,26.4236 268.913,35.4236 268,44.5C 266.308,53.0129 261.641,55.3462 254,51.5C 253.5,52 253,52.5 252.5,53C 248.848,53.4986 245.182,53.6653 241.5,53.5C 244.167,37.1667 244.167,20.8333 241.5,4.5 Z"/></g>
<g><path style="opacity:1" fill="#25517c" d="M 301.5,4.5 C 305.5,4.5 309.5,4.5 313.5,4.5C 313.333,19.5037 313.5,34.5037 314,49.5C 315.188,50.5634 315.688,51.8967 315.5,53.5C 310.833,53.5 306.167,53.5 301.5,53.5C 304.167,37.1667 304.167,20.8333 301.5,4.5 Z"/></g>
<g><path style="opacity:1" fill="#4a6f91" d="M 19.5,8.5 C 19.5,22.1667 19.5,35.8333 19.5,49.5C 20.5,49.5 21.5,49.5 22.5,49.5C 21.4324,50.4345 20.099,50.7678 18.5,50.5C 18.1709,36.3234 18.5042,22.3234 19.5,8.5 Z"/></g>
<g><path style="opacity:1" fill="#f2f4f7" d="M 19.5,8.5 C 21.3904,8.2965 22.8904,8.96317 24,10.5C 24.6667,22.5 24.6667,34.5 24,46.5C 23.7679,47.7375 23.2679,48.7375 22.5,49.5C 21.5,49.5 20.5,49.5 19.5,49.5C 19.5,35.8333 19.5,22.1667 19.5,8.5 Z"/></g>
<g><path style="opacity:1" fill="#23507b" d="M 39.5,12.5 C 43.5,12.5 47.5,12.5 51.5,12.5C 50.984,26.2813 51.6506,39.948 53.5,53.5C 48.8333,53.5 44.1667,53.5 39.5,53.5C 41.4971,41.2809 41.9971,28.9476 41,16.5C 39.8118,15.4366 39.3118,14.1033 39.5,12.5 Z"/></g>
<g><path style="opacity:1" fill="#2a557e" d="M 60.5,11.5 C 64.1834,12.6748 67.85,12.6748 71.5,11.5C 72.3255,15.1359 72.9922,18.8026 73.5,22.5C 70.2038,22.3045 67.8705,20.6378 66.5,17.5C 65.675,16.6143 64.675,16.281 63.5,16.5C 63.3433,17.8734 63.51,19.2068 64,20.5C 67.4005,25.5773 70.4005,30.9107 73,36.5C 73.6667,40.5 73.6667,44.5 73,48.5C 72.4257,50.492 71.259,51.992 69.5,53C 65.4274,52.7669 61.4274,52.9336 57.5,53.5C 57.0578,49.8455 56.7244,46.1788 56.5,42.5C 60.2128,43.0416 62.5461,45.2083 63.5,49C 64.448,49.4828 65.448,49.6495 66.5,49.5C 66.6567,48.1266 66.49,46.7932 66,45.5C 62.6322,38.8137 59.2989,32.147 56,25.5C 54.3085,19.6102 55.8085,14.9436 60.5,11.5 Z"/></g>
<g><path style="opacity:1" fill="#24517b" d="M 101.5,11.5 C 105.605,11.2338 109.605,11.7338 113.5,13C 115.667,13.8333 117.167,15.3333 118,17.5C 117.904,28.8092 118.737,39.9759 120.5,51C 120.355,51.772 120.022,52.4387 119.5,53C 115.291,54.1893 111.624,53.356 108.5,50.5C 103.892,54.3841 99.3922,54.3841 95,50.5C 89.4219,36.9091 93.5886,28.2424 107.5,24.5C 108.652,21.8938 108.818,19.2272 108,16.5C 106.413,15.273 105.079,15.6063 104,17.5C 103.893,23.9479 100.893,25.9479 95,23.5C 94.3333,21.1667 94.3333,18.8333 95,16.5C 96.9651,14.4497 99.1318,12.783 101.5,11.5 Z"/></g>
<g><path style="opacity:1" fill="#25517b" d="M 139.5,11.5 C 144.133,10.4582 147.299,12.1249 149,16.5C 149.248,28.8583 149.748,41.1917 150.5,53.5C 146.894,53.7892 143.394,53.4558 140,52.5C 139.667,41.5 139.333,30.5 139,19.5C 137.667,18.1667 136.333,18.1667 135,19.5C 134.02,30.9501 134.52,42.2834 136.5,53.5C 131.833,53.5 127.167,53.5 122.5,53.5C 122.312,51.8967 122.812,50.5634 124,49.5C 124.667,38.5 124.667,27.5 124,16.5C 122.812,15.4366 122.312,14.1033 122.5,12.5C 126.5,12.5 130.5,12.5 134.5,12.5C 134.351,13.552 134.517,14.552 135,15.5C 136.667,14.2668 138.167,12.9335 139.5,11.5 Z"/></g>
<g><path style="opacity:1" fill="#2c567f" d="M 223.5,11.5 C 231.199,10.7009 236.032,14.0343 238,21.5C 238.499,25.1516 238.665,28.8183 238.5,32.5C 234.167,32.5 229.833,32.5 225.5,32.5C 225.193,38.0934 225.527,43.5934 226.5,49C 228.701,49.8249 230.534,49.3249 232,47.5C 232.96,45.0197 233.793,42.5197 234.5,40C 237.23,39.0585 238.563,40.0585 238.5,43C 236.361,52.5704 230.694,55.5704 221.5,52C 216.55,48.0645 214.05,42.8978 214,36.5C 212.184,26.0936 215.351,17.7602 223.5,11.5 Z"/></g>
<g><path style="opacity:1" fill="#25527c" d="M 271.5,12.5 C 275.5,12.5 279.5,12.5 283.5,12.5C 283.5,23.8333 283.5,35.1667 283.5,46.5C 284.833,46.5 286.167,46.5 287.5,46.5C 287.743,35.1356 287.41,23.8023 286.5,12.5C 290.167,12.5 293.833,12.5 297.5,12.5C 297.333,24.5046 297.5,36.5046 298,48.5C 299.269,49.9047 299.769,51.5714 299.5,53.5C 295.5,53.5 291.5,53.5 287.5,53.5C 287.719,52.325 287.386,51.325 286.5,50.5C 282.222,54.3652 278.055,54.3652 274,50.5C 274.004,37.722 273.17,25.0554 271.5,12.5 Z"/></g>
<g><path style="opacity:1" fill="#25527c" d="M 326.5,11.5 C 333.219,10.5419 338.719,12.5419 343,17.5C 343.251,29.5251 343.751,41.5251 344.5,53.5C 341.482,53.6646 338.482,53.498 335.5,53C 333.783,50.119 331.783,50.119 329.5,53C 324.572,54.6433 321.072,53.1433 319,48.5C 316.224,41.1638 317.39,34.6638 322.5,29C 325.791,27.403 329.125,25.903 332.5,24.5C 333.652,21.8938 333.818,19.2272 333,16.5C 331.413,15.273 330.079,15.6063 329,17.5C 328.893,23.9479 325.893,25.9479 320,23.5C 319.333,21.1667 319.333,18.8333 320,16.5C 321.965,14.4497 324.132,12.783 326.5,11.5 Z"/></g>
<g><path style="opacity:1" fill="#e8edf1" d="M 225.5,15.5 C 226.822,15.33 227.989,15.6634 229,16.5C 229.499,20.4862 229.666,24.4862 229.5,28.5C 228.167,28.5 226.833,28.5 225.5,28.5C 225.5,24.1667 225.5,19.8333 225.5,15.5 Z"/></g>
<g><path style="opacity:1" fill="#f9fafb" d="M 253.5,17.5 C 254.822,17.33 255.989,17.6634 257,18.5C 257.667,28.1667 257.667,37.8333 257,47.5C 256,48.8333 255,48.8333 254,47.5C 253.5,37.5056 253.334,27.5056 253.5,17.5 Z"/></g>
<g><path style="opacity:1" fill="#eaeef2" d="M 106.5,28.5 C 107.816,31.0866 108.483,34.0866 108.5,37.5C 108.333,40.5 108.167,43.5 108,46.5C 106.413,47.727 105.079,47.3937 104,45.5C 103.333,41.1667 103.333,36.8333 104,32.5C 104.662,31.0161 105.496,29.6828 106.5,28.5 Z"/></g>
<g><path style="opacity:1" fill="#eef1f4" d="M 331.5,28.5 C 332.816,31.0866 333.483,34.0866 333.5,37.5C 333.333,40.5 333.167,43.5 333,46.5C 331.413,47.727 330.079,47.3937 329,45.5C 327.805,39.4252 328.639,33.7585 331.5,28.5 Z"/></g>
</svg>
