<?xml version="1.0" encoding="UTF-8"?>
<!DOCTYPE svg PUBLIC "-//W3C//DTD SVG 1.1//EN" "http://www.w3.org/Graphics/SVG/1.1/DTD/svg11.dtd">
<svg xmlns="http://www.w3.org/2000/svg" version="1.1" width="786px" height="139px" style="shape-rendering:geometricPrecision; text-rendering:geometricPrecision; image-rendering:optimizeQuality; fill-rule:evenodd; clip-rule:evenodd" xmlns:xlink="http://www.w3.org/1999/xlink">
<g><path style="opacity:1" fill="#fdfdfe" d="M -0.5,-0.5 C 261.5,-0.5 523.5,-0.5 785.5,-0.5C 785.5,45.8333 785.5,92.1667 785.5,138.5C 523.5,138.5 261.5,138.5 -0.5,138.5C -0.5,92.1667 -0.5,45.8333 -0.5,-0.5 Z"/></g>
<g><path style="opacity:1" fill="#29547e" d="M 102.5,8.5 C 106.637,8.14631 110.637,8.64631 114.5,10C 117.448,13.9275 116.782,17.2608 112.5,20C 106.383,23.3909 100.05,24.0576 93.5,22C 91.5561,19.8471 91.0561,17.3471 92,14.5C 95.1013,11.6482 98.6013,9.6482 102.5,8.5 Z"/></g>
<g><path style="opacity:1" fill="#24517b" d="M 189.5,9.5 C 192.119,9.23166 194.619,9.565 197,10.5C 197.499,16.1569 197.666,21.8236 197.5,27.5C 204.628,27.7063 206.294,30.873 202.5,37C 200.866,37.4935 199.199,37.6602 197.5,37.5C 197.333,61.5023 197.5,85.5023 198,109.5C 199.193,111.605 200.86,113.272 203,114.5C 203.495,116.473 203.662,118.473 203.5,120.5C 195.493,120.666 187.493,120.5 179.5,120C 177.959,118.421 176.792,116.587 176,114.5C 174.528,88.898 174.028,63.2313 174.5,37.5C 173.167,37.5 171.833,37.5 170.5,37.5C 170.5,34.5 170.5,31.5 170.5,28.5C 181.134,26.5328 187.467,20.1995 189.5,9.5 Z"/></g>
<g><path style="opacity:1" fill="#24517b" d="M 362.5,9.5 C 365.119,9.23166 367.619,9.565 370,10.5C 370.499,16.1569 370.666,21.8236 370.5,27.5C 377.628,27.7063 379.294,30.873 375.5,37C 373.866,37.4935 372.199,37.6602 370.5,37.5C 370.333,61.5023 370.5,85.5023 371,109.5C 372.193,111.605 373.86,113.272 376,114.5C 376.495,116.473 376.662,118.473 376.5,120.5C 368.493,120.666 360.493,120.5 352.5,120C 350.959,118.421 349.792,116.587 349,114.5C 347.528,88.898 347.028,63.2313 347.5,37.5C 346.167,37.5 344.833,37.5 343.5,37.5C 343.5,34.5 343.5,31.5 343.5,28.5C 354.134,26.5328 360.467,20.1995 362.5,9.5 Z"/></g>
<g><path style="opacity:1" fill="#25527c" d="M 15.5,10.5 C 28.8375,10.3334 42.1708,10.5001 55.5,11C 67.1324,13.9638 74.9657,21.1305 79,32.5C 84.1893,51.9904 84.856,71.6571 81,91.5C 78.6947,103.122 72.5281,111.955 62.5,118C 60.2115,118.822 57.8782,119.489 55.5,120C 41.2585,120.823 27.0918,120.656 13,119.5C 12.3333,117.167 12.3333,114.833 13,112.5C 14.9552,111.547 16.6218,110.213 18,108.5C 18.6667,79.8333 18.6667,51.1667 18,22.5C 14.6603,21.3306 13.1603,18.9973 13.5,15.5C 13.7245,13.5453 14.3911,11.8787 15.5,10.5 Z"/></g>
<g><path style="opacity:1" fill="#22507a" d="M 458.5,60.5 C 458.987,61.4734 459.487,62.4734 460,63.5C 460.827,49.9936 460.66,36.6603 459.5,23.5C 459.586,22.5041 459.252,21.6708 458.5,21C 453.563,19.2229 452.23,15.8896 454.5,11C 461.167,10.3333 467.833,10.3333 474.5,11C 476.467,15.6571 475.3,19.1571 471,21.5C 470.5,54.4983 470.333,87.4983 470.5,120.5C 466.445,120.824 462.445,120.491 458.5,119.5C 450,99.8333 441.5,80.1667 433,60.5C 432.333,76.5 432.333,92.5 433,108.5C 437.996,110.933 439.829,114.933 438.5,120.5C 431.245,120.813 424.079,120.48 417,119.5C 415.448,114.896 416.782,111.563 421,109.5C 421.667,80.8333 421.667,52.1667 421,23.5C 419.376,21.8419 417.709,20.1752 416,18.5C 415.056,15.6529 415.556,13.1529 417.5,11C 424.192,10.1691 430.858,10.3358 437.5,11.5C 444.788,27.7387 451.788,44.072 458.5,60.5 Z"/></g>
<g><path style="opacity:1" fill="#23507b" d="M 543.5,10.5 C 551.889,10.1968 560.222,10.5301 568.5,11.5C 569.331,18.8108 569.831,26.1441 570,33.5C 574.968,27.8849 581.135,26.0516 588.5,28C 595.758,31.6721 600.258,37.5054 602,45.5C 604.977,63.0978 605.31,80.7645 603,98.5C 601.777,108.473 596.944,115.973 588.5,121C 581.537,122.354 575.537,120.52 570.5,115.5C 569.756,116.991 569.09,118.491 568.5,120C 559.84,120.5 551.173,120.666 542.5,120.5C 542.337,118.143 542.503,115.81 543,113.5C 543.689,112.643 544.522,111.977 545.5,111.5C 546.667,80.8388 546.833,50.1721 546,19.5C 544.989,18.6634 543.822,18.33 542.5,18.5C 542.279,15.7212 542.612,13.0545 543.5,10.5 Z"/></g>
<g><path style="opacity:1" fill="#25527c" d="M 679.5,10.5 C 688.085,10.1834 696.585,10.5168 705,11.5C 705.333,44.8333 705.667,78.1667 706,111.5C 708.615,113.916 709.115,116.75 707.5,120C 697.922,120.818 688.422,120.651 679,119.5C 678.333,117.167 678.333,114.833 679,112.5C 679.689,111.643 680.522,110.977 681.5,110.5C 682.667,80.8389 682.833,51.1723 682,21.5C 678.594,18.3908 677.761,14.7241 679.5,10.5 Z"/></g>
<g><path style="opacity:1" fill="#fefefe" d="M 44.5,19.5 C 49.1328,18.4582 52.2994,20.1249 54,24.5C 54.6667,51.8333 54.6667,79.1667 54,106.5C 53.2232,111.964 50.0566,113.964 44.5,112.5C 44.5,81.5 44.5,50.5 44.5,19.5 Z"/></g>
<g><path style="opacity:1" fill="#24517b" d="M 154.5,26.5 C 156.792,26.2436 158.959,26.5769 161,27.5C 162.564,34.486 164.064,41.486 165.5,48.5C 165.392,49.4419 165.059,50.2753 164.5,51C 162.167,51.6667 159.833,51.6667 157.5,51C 154.903,45.8051 151.57,41.1384 147.5,37C 145.866,36.5065 144.199,36.3398 142.5,36.5C 142.338,38.5273 142.505,40.5273 143,42.5C 149.921,54.6738 156.588,67.0071 163,79.5C 167.193,90.0549 167.526,100.722 164,111.5C 161.614,117.723 157.114,121.056 150.5,121.5C 146.536,120.191 142.536,118.858 138.5,117.5C 138.67,118.822 138.337,119.989 137.5,121C 135.231,121.758 133.064,121.591 131,120.5C 129.555,112.996 128.055,105.496 126.5,98C 128.304,95.7017 130.637,95.035 133.5,96C 136.588,100.843 139.921,105.509 143.5,110C 145.441,110.743 147.274,110.576 149,109.5C 149.667,107.167 149.667,104.833 149,102.5C 142.333,89.8333 135.667,77.1667 129,64.5C 124.562,54.0879 124.562,43.7545 129,33.5C 133.53,27.8294 139.363,25.996 146.5,28C 148.65,29.4114 150.984,30.2447 153.5,30.5C 153.433,29.0413 153.766,27.7079 154.5,26.5 Z"/></g>
<g><path style="opacity:1" fill="#24517b" d="M 232.5,26.5 C 241.998,26.0691 250.998,27.9024 259.5,32C 262.273,34.3834 264.439,37.2167 266,40.5C 267.303,63.7702 267.97,87.1036 268,110.5C 272.362,116.469 270.862,119.969 263.5,121C 254.918,123.04 248.585,120.207 244.5,112.5C 238.574,119.194 231.241,122.028 222.5,121C 218.388,119.221 215.222,116.388 213,112.5C 208.82,99.9304 208.487,87.2637 212,74.5C 214.128,71.3699 216.628,68.5366 219.5,66C 227.422,61.418 235.755,57.918 244.5,55.5C 244.666,49.8236 244.499,44.1569 244,38.5C 240.706,35.6888 237.706,36.0221 235,39.5C 235.82,52.7009 229.653,57.8676 216.5,55C 214.667,54.5 213.5,53.3333 213,51.5C 210.81,43.5042 212.977,37.0042 219.5,32C 223.76,29.7029 228.093,27.8696 232.5,26.5 Z"/></g>
<g><path style="opacity:1" fill="#204e79" d="M 277.5,27.5 C 285.833,27.5 294.167,27.5 302.5,27.5C 302.335,30.5184 302.502,33.5184 303,36.5C 310.026,27.6257 318.859,25.1257 329.5,29C 332.106,30.9384 333.939,33.4384 335,36.5C 335.333,60.8333 335.667,85.1667 336,109.5C 336.667,110.167 337.333,110.833 338,111.5C 338.498,114.482 338.665,117.482 338.5,120.5C 331.159,120.666 323.826,120.5 316.5,120C 315.54,118.581 314.707,117.081 314,115.5C 313.667,91.8333 313.333,68.1667 313,44.5C 309.922,40.6829 306.588,40.6829 303,44.5C 302.333,65.8333 302.333,87.1667 303,108.5C 306.198,111.524 307.198,115.191 306,119.5C 296.25,120.486 286.416,120.819 276.5,120.5C 276.336,117.813 276.503,115.146 277,112.5C 278.333,111.833 279.333,110.833 280,109.5C 280.667,85.5 280.667,61.5 280,37.5C 276.5,34.8311 275.666,31.4978 277.5,27.5 Z"/></g>
<g><path style="opacity:1" fill="#214f7a" d="M 536.5,72.5 C 526.167,72.5 515.833,72.5 505.5,72.5C 505.173,82.3478 505.506,92.0144 506.5,101.5C 506.373,111.258 510.707,114.258 519.5,110.5C 524.349,104.773 526.349,98.1062 525.5,90.5C 528.85,90.335 532.183,90.5017 535.5,91C 537.47,105.72 531.47,115.72 517.5,121C 505.275,122.969 495.775,118.803 489,108.5C 482.898,97.4782 480.398,85.6449 481.5,73C 480.006,57.1456 484.673,43.4789 495.5,32C 515.35,22.5112 528.517,28.3446 535,49.5C 536.311,57.1052 536.811,64.7718 536.5,72.5 Z"/></g>
<g><path style="opacity:1" fill="#5c7e9d" d="M 668.5,28.5 C 660.5,28.5 652.5,28.5 644.5,28.5C 644.5,31.1667 644.5,33.8333 644.5,36.5C 642.974,35.5081 642.307,34.0081 642.5,32C 642.559,30.5643 642.892,29.231 643.5,28C 652.01,27.1768 660.344,27.3434 668.5,28.5 Z"/></g>
<g><path style="opacity:1" fill="#23507b" d="M 737.5,26.5 C 746.998,26.0691 755.998,27.9024 764.5,32C 767.273,34.3834 769.439,37.2167 771,40.5C 772.303,63.7702 772.97,87.1036 773,110.5C 777.362,116.469 775.862,119.969 768.5,121C 759.918,123.04 753.585,120.207 749.5,112.5C 743.574,119.194 736.241,122.028 727.5,121C 723.388,119.221 720.222,116.388 718,112.5C 713.82,99.9304 713.487,87.2637 717,74.5C 719.5,70.6667 722.667,67.5 726.5,65C 733.97,61.262 741.637,58.0953 749.5,55.5C 749.666,49.8236 749.499,44.1569 749,38.5C 745.706,35.6888 742.706,36.0221 740,39.5C 740.82,52.7009 734.653,57.8676 721.5,55C 719.667,54.5 718.5,53.3333 718,51.5C 715.81,43.5042 717.977,37.0042 724.5,32C 728.76,29.7029 733.093,27.8696 737.5,26.5 Z"/></g>
<g><path style="opacity:1" fill="#25517c" d="M 90.5,27.5 C 99.0851,27.1834 107.585,27.5168 116,28.5C 116.333,55.8333 116.667,83.1667 117,110.5C 120.443,112.997 121.276,116.163 119.5,120C 109.589,120.818 99.7559,120.651 90,119.5C 88.7928,115.688 89.7928,112.688 93,110.5C 93.6667,86.1667 93.6667,61.8333 93,37.5C 89.3711,35.0116 88.5378,31.6782 90.5,27.5 Z"/></g>
<g><path style="opacity:1" fill="#214f7a" d="M 644.5,36.5 C 644.5,33.8333 644.5,31.1667 644.5,28.5C 652.5,28.5 660.5,28.5 668.5,28.5C 669.332,55.3302 669.832,82.3302 670,109.5C 672.848,112.537 674.015,116.204 673.5,120.5C 664.833,120.5 656.167,120.5 647.5,120.5C 648.647,111.37 646.314,110.203 640.5,117C 629.78,124.443 621.28,122.61 615,111.5C 614.5,86.8356 614.333,62.1689 614.5,37.5C 613.178,37.67 612.011,37.3366 611,36.5C 610.223,33.5706 610.39,30.7372 611.5,28C 619.827,27.5003 628.16,27.3336 636.5,27.5C 636.019,53.256 636.519,78.9227 638,104.5C 640.587,107.034 643.253,107.034 646,104.5C 646.667,82.1667 646.667,59.8333 646,37.5C 645.617,36.944 645.117,36.6107 644.5,36.5 Z"/></g>
<g><path style="opacity:1" fill="#fdfdfe" d="M 514.5,39.5 C 514.5,47.5 514.5,55.5 514.5,63.5C 511.833,63.5 509.167,63.5 506.5,63.5C 506.5,55.5 506.5,47.5 506.5,39.5C 507.128,36.0451 509.128,34.8785 512.5,36C 513.823,36.8159 514.489,37.9826 514.5,39.5 Z"/></g>
<g><path style="opacity:1" fill="#f9fbfb" d="M 572.5,39.5 C 575.808,38.9738 577.974,40.3072 579,43.5C 579.667,63.5 579.667,83.5 579,103.5C 577.359,108.758 574.359,109.758 570,106.5C 569.333,84.8333 569.333,63.1667 570,41.5C 570.995,40.9341 571.828,40.2674 572.5,39.5 Z"/></g>
<g><path style="opacity:1" fill="#a3b6c8" d="M 506.5,39.5 C 506.5,47.5 506.5,55.5 506.5,63.5C 509.167,63.5 511.833,63.5 514.5,63.5C 514.5,55.5 514.5,47.5 514.5,39.5C 515.493,47.6499 515.826,55.9832 515.5,64.5C 512.167,64.5 508.833,64.5 505.5,64.5C 505.174,55.9832 505.507,47.6499 506.5,39.5 Z"/></g>
<g><path style="opacity:1" fill="#7793ad" d="M 459.5,23.5 C 460.66,36.6603 460.827,49.9936 460,63.5C 459.487,62.4734 458.987,61.4734 458.5,60.5C 459.495,48.3446 459.829,36.0113 459.5,23.5 Z"/></g>
<g><path style="opacity:1" fill="#fcfcfd" d="M 241.5,64.5 C 242.5,64.5 243.5,64.5 244.5,64.5C 244.667,77.1711 244.5,89.8377 244,102.5C 242.936,106.295 240.436,107.461 236.5,106C 235.809,104.933 235.309,103.766 235,102.5C 234.333,93.1667 234.333,83.8333 235,74.5C 235.435,69.9448 237.602,66.6115 241.5,64.5 Z"/></g>
<g><path style="opacity:1" fill="#fcfcfd" d="M 748.5,64.5 C 749.495,75.988 749.828,87.6547 749.5,99.5C 749.776,106.067 746.943,108.067 741,105.5C 739.023,93.8467 739.023,82.18 741,70.5C 742.662,67.4231 745.162,65.4231 748.5,64.5 Z"/></g>
<g><path style="opacity:1" fill="#466d90" d="M 748.5,64.5 C 748.56,63.9569 748.893,63.6236 749.5,63.5C 750.825,75.6602 750.825,87.6602 749.5,99.5C 749.828,87.6547 749.495,75.988 748.5,64.5 Z"/></g>
<g><path style="opacity:1" fill="#8da4ba" d="M 536.5,72.5 C 526.681,73.494 516.681,73.8274 506.5,73.5C 506.5,82.8333 506.5,92.1667 506.5,101.5C 505.506,92.0144 505.173,82.3478 505.5,72.5C 515.833,72.5 526.167,72.5 536.5,72.5 Z"/></g>
</svg>
